<?xml version="1.0" encoding="utf-8"?>
<!-- Generator: Adobe Illustrator 22.0.1, SVG Export Plug-In . SVG Version: 6.00 Build 0)  -->
<svg version="1.1" id="Layer_1" xmlns="http://www.w3.org/2000/svg" xmlns:xlink="http://www.w3.org/1999/xlink" x="0px" y="0px"
	 viewBox="0 0 301.1 82.3" style="enable-background:new 0 0 301.1 82.3;" xml:space="preserve">
<style type="text/css">
	.st0{fill:#FFFFFF;}
</style>
<g>
	<path class="st0" d="M7.2,18.8c0,1.4,0.3,2.8,1,4c1.4,2.8,4.3,4.7,7.7,4.7c3.3,0,6.3-1.9,7.7-4.7c0.6-1.2,1-2.5,1-4
		c0-4.8-3.9-8.6-8.6-8.6C11.1,10.1,7.2,14,7.2,18.8"/>
	<path class="st0" d="M15.8,6.8c0.2,0,0.4,0,0.6,0c0.2,0,0.4,0,0.7,0h19.1c1.1,0,2.1,0.1,3.1,0.3c6.4,1.4,11.2,7.1,11.2,13.9
		c0,3.9-1.6,7.5-4.2,10.1c-1.9,1.9-4.3,3.3-7,3.8c-1,0.2-2,0.3-3.1,0.3h-7.6V42h21c5.8,0,11-2.3,14.8-6.1c3.8-3.8,6.1-9,6.1-14.8
		c0-11.6-9.4-20.9-20.9-20.9H0.2c0.1,0.1,0.3,0.2,0.4,0.3h0C1,0.6,1.3,0.8,1.6,1.1c0,0,0,0,0,0C3.5,2.6,5,4.5,6,6.8
		C6.5,8,6.8,9.3,7,10.7C9.2,8.3,12.3,6.8,15.8,6.8"/>
	<path class="st0" d="M49.5,46.9h-2.9c2.3,2.5,3.8,5.9,3.8,9.7c0,3.9-1.6,7.5-4.2,10.1c-1.9,1.9-4.3,3.3-7,3.8c-1,0.2-2,0.3-3.1,0.3
		H25.4V26c-1.1,1.4-2.4,2.5-3.9,3.3c-1.7,0.9-3.6,1.4-5.6,1.4c-2,0-3.9-0.5-5.6-1.4c-1.5-0.8-2.8-1.9-3.9-3.3v56.1h0.1
		c0.5-0.5,1-1,1.5-1.4c2-1.6,4.4-2.7,7-3c0.7-0.1,1.3-0.1,2-0.1h32.6c5.8,0,11-2.3,14.8-6.1c3.8-3.8,6.1-9,6.1-14.8
		c0-5.6-2.2-10.8-5.9-14.5C60.3,45.2,55,46.9,49.5,46.9"/>
	<path class="st0" d="M87.2,9.2c-2.9,0-4.2-1-4.2-3.9c0-2.8,1.3-3.8,4.2-3.8h1.2c2.9,0,4.2,1,4.2,3.8c0,2.9-1.3,3.9-4.2,3.9H87.2z
		 M83.9,11.3h8v23.4h-8V11.3z"/>
	<rect x="95.1" y="3.9" class="st0" width="8" height="30.7"/>
	<rect x="106.4" y="3.9" class="st0" width="8" height="30.7"/>
	<path class="st0" d="M121,9.2c-2.9,0-4.2-1-4.2-3.9c0-2.8,1.3-3.8,4.2-3.8h1.2c2.9,0,4.2,1,4.2,3.8c0,2.9-1.3,3.9-4.2,3.9H121z
		 M117.7,11.3h8v23.4h-8V11.3z"/>
	<path class="st0" d="M140.7,35.3c-8.4,0-12.1-2.8-12.1-12.3s3.7-12.3,12.1-12.3h5c8.4,0,12.1,2.8,12.1,12.3s-3.7,12.3-12.1,12.3
		H140.7z M144.8,28.4c4.4,0,5.2-1.7,5.2-5.5c0-3.8-0.8-5.5-5.2-5.5h-3.3c-4.4,0-5.2,1.7-5.2,5.5c0,3.8,0.8,5.5,5.2,5.5H144.8z"/>
	<path class="st0" d="M178.3,10.7c7.6,0,11.5,2.8,11.5,12.3v11.7h-8V23c0-3.8-0.8-5.5-5.2-5.5h-2.7c-4.4,0-5.2,1.7-5.2,5.5v11.6h-8
		V11.3h7.2v3.9c1.9-3.4,5.3-4.5,9.7-4.5H178.3z"/>
	<polygon class="st0" points="123.2,74.5 114.8,74.5 115.1,52.3 108.5,74.5 97,74.5 90.3,52.3 90.6,74.5 82.2,74.5 82.2,45.8 
		96.2,45.8 102.9,68.4 109.7,45.8 123.2,45.8 	"/>
	<path class="st0" d="M142.8,50.5c8.4,0,12.3,2.8,12.3,12.3v11.7h-8v-2.6c-1.4,2-3.7,3.2-8,3.2h-1.4c-8.1,0-12.1-2.2-12.1-8.3
		c0-5.2,4.1-6.2,11.3-6.2h10.1c-0.4-2.7-1.6-3.7-5.1-3.7h-3.9c-3.6,0-4.2,1.4-4.2,2.3h-7.8c0-6.1,4-8.7,12.1-8.7H142.8z M142,69.1
		c3.8,0,4.9-1.3,5.2-4.4h-9.4c-3.3,0-4.2,0.6-4.2,2.1c0,1.7,0.9,2.3,4.2,2.3H142z"/>
	<path class="st0" d="M174.4,50.5c5.1,0,9.4,2.8,9.4,11.1h-8c0-2.6-0.8-4.3-3.9-4.3h-0.7c-4,0-4.8,1.7-4.8,5.5v11.7h-8V51.1h7.2v3.8
		c1.8-3.2,4.8-4.4,8-4.4H174.4z"/>
	<polygon class="st0" points="213.3,74.5 202.8,74.5 193.4,63.7 193.4,74.5 185.5,74.5 185.5,43.8 193.4,43.8 193.4,61.8 203,51.1 
		212.5,51.1 202.1,62.1 	"/>
	<path class="st0" d="M241.6,65h-21.4c0.4,2.4,1.6,3.5,5.1,3.5h4.3c3.6,0,4.2-1.4,4.2-2h7.8c0,6.1-4,8.7-12.1,8.7h-5
		c-8.4,0-12.1-2.8-12.1-12.3c0-9.5,3.7-12.3,12.1-12.3h5c8.1,0,12.1,2.6,12.1,10.2V65z M233.8,60.7c0-2.2-1.1-3.6-5-3.6h-3.4
		c-3.5,0-4.7,1.1-5.1,3.6H233.8z"/>
	<path class="st0" d="M269.1,64.8c0,7-4.1,10.3-11.3,10.3h-0.5c-6.8,0-10.9-2.6-10.9-10.5v-7.6h-3.1v-5.9h3.1v-5.3h8v5.3h13.9v5.9
		h-13.9v7.6c0,2.4,0.9,3.8,3.4,3.8h0.2c2.2,0,3.3-0.9,3.3-3.7H269.1z"/>
	<path class="st0" d="M288.8,59.8c8.1,0,12.1,0.8,12.1,7c0,5.3-4.1,8.3-12.1,8.3h-5c-8.1,0-12.1-2.2-12.1-8.4h7.8
		c0,1.2,0.7,2.2,3.4,2.2h6.4c2.8,0,3.9-0.5,3.9-1.6c0-1.1-1.1-1.4-3.9-1.4h-5.1c-8.1,0-12.1-1.3-12.1-7.5c0-5.4,4.1-7.9,12.1-7.9
		h4.2c8.1,0,12.1,1.8,12.1,8.4h-7.8c0-1.2-0.7-2.2-3.4-2.2h-5.9c-2.8,0-3.5,0.7-3.5,1.6c0,0.9,0.7,1.5,3.5,1.5H288.8z"/>
</g>
</svg>
