<svg width="245" height="60" viewBox="0 0 245 60" fill="none" xmlns="http://www.w3.org/2000/svg">
<g clip-path="url(#clip0_107_5650)">
<path d="M50.43 59.9999H9.58002C7.04168 59.992 4.60952 58.9802 2.81464 57.1853C1.01975 55.3904 0.00791177 52.9583 0 50.4199V9.87994C0.0209465 7.25375 1.07419 4.7412 2.93219 2.88507C4.79019 1.02894 7.30377 -0.0217386 9.92999 -0.0400391H50.43C52.9657 -0.0321273 55.3953 0.978657 57.1883 2.77167C58.9813 4.56468 59.9921 6.99428 60 9.52997V50.3799C60.0053 52.9243 59.0004 55.3667 57.2059 57.1705C55.4115 58.9743 52.9743 59.992 50.43 59.9999Z" fill="url(#paint0_linear_107_5650)"/>
<path d="M12.7798 15.47H36.5698L32.1498 7.65003C31.3824 7.56964 30.6114 7.52959 29.8398 7.53003C26.589 7.52815 23.3772 8.23794 20.4299 9.60962C17.4827 10.9813 14.8716 12.9816 12.7798 15.47Z" fill="white"/>
<path d="M50.4698 21.36C49.0949 18.0144 46.9275 15.0532 44.1542 12.7311C41.381 10.409 38.0849 8.79568 34.5498 8.03003L46.1599 28.1L50.4698 21.36Z" fill="white"/>
<path d="M51.3198 23.66L39.8198 43.17H47.7698C49.8243 40.4111 51.2136 37.2149 51.8293 33.8307C52.4451 30.4465 52.2708 26.9658 51.3198 23.66Z" fill="white"/>
<path d="M46.47 44.6899H24.6699L28.3199 52.08C28.8199 52.08 29.32 52.08 29.83 52.08C32.9681 52.0924 36.0732 51.4404 38.9412 50.1667C41.8092 48.893 44.3751 47.0265 46.47 44.6899Z" fill="white"/>
<path d="M22.7998 36.39C25.5398 32.97 30.1098 32.93 32.5398 32.97C34.9698 33.01 36.3398 34.97 35.8898 33.66C35.4398 32.35 31.8898 31.41 31.3998 31.33C30.9098 31.25 26.9098 31.26 27.3998 30.99C28.9498 30.16 32.1898 29.93 34.9998 29.89C36.8043 29.949 38.5135 30.7138 39.7598 32.02V30.02C39.7598 25.24 34.9998 23.43 34.0098 23.24C33.0198 23.05 33.2198 23.02 33.0098 22.67C32.7998 22.32 33.2098 22.37 32.8198 20.77C32.4298 19.17 25.7498 17.87 25.7498 17.87H11.3198L10.4998 18.8C9.39576 20.7215 8.58676 22.7981 8.09985 24.96L8.5498 24.73C10.6652 23.4792 13.0937 22.8583 15.5498 22.94C12.727 23.7544 10.0908 25.1133 7.78979 26.94C7.65749 27.9111 7.59072 28.8899 7.58984 29.87C7.58983 31.9678 7.8861 34.0551 8.46985 36.07L8.69983 35.82C14.6998 29.31 15.6198 29.82 15.6198 29.82C12.7443 32.1262 10.595 35.213 9.42981 38.71C10.7944 41.8549 12.8645 44.6435 15.4798 46.86C14.8298 39.86 16.4198 37.43 16.4198 37.43C15.6298 44.09 18.0698 48.17 18.7298 49.15C20.9993 50.4651 23.4847 51.3657 26.0698 51.81C21.0998 44.48 20.1298 39.74 22.7998 36.39ZM29.9498 24.18C29.9498 24.18 28.5498 26.18 27.2898 26.18C26.0298 26.18 24.2898 25.12 23.7498 22.64C25.5358 23.9439 27.7613 24.4967 29.9498 24.18Z" fill="white"/>
<path d="M127.3 25.22H127.29C125.13 25.22 123.38 26.9705 123.38 29.13V47.2C123.38 49.3594 125.13 51.11 127.29 51.11H127.3C129.459 51.11 131.21 49.3594 131.21 47.2V29.13C131.21 26.9705 129.459 25.22 127.3 25.22Z" fill="white"/>
<path d="M168.06 25.22H168.05C165.891 25.22 164.14 26.9705 164.14 29.13V47.2C164.14 49.3594 165.891 51.11 168.05 51.11H168.06C170.22 51.11 171.97 49.3594 171.97 47.2V29.13C171.97 26.9705 170.22 25.22 168.06 25.22Z" fill="white"/>
<path d="M127.68 21.45C129.989 21.45 131.86 19.5785 131.86 17.27C131.86 14.9614 129.989 13.09 127.68 13.09C125.371 13.09 123.5 14.9614 123.5 17.27C123.5 19.5785 125.371 21.45 127.68 21.45Z" fill="white"/>
<path d="M168.36 21.45C170.669 21.45 172.54 19.5785 172.54 17.27C172.54 14.9614 170.669 13.09 168.36 13.09C166.052 13.09 164.18 14.9614 164.18 17.27C164.18 19.5785 166.052 21.45 168.36 21.45Z" fill="white"/>
<path d="M216.94 25.64H216.93C214.771 25.64 213.02 27.3906 213.02 29.55V47.62C213.02 49.7794 214.771 51.53 216.93 51.53H216.94C219.099 51.53 220.85 49.7794 220.85 47.62V29.55C220.85 27.3906 219.099 25.64 216.94 25.64Z" fill="white"/>
<path d="M216.94 21.45C219.248 21.45 221.12 19.5785 221.12 17.27C221.12 14.9614 219.248 13.09 216.94 13.09C214.631 13.09 212.76 14.9614 212.76 17.27C212.76 19.5785 214.631 21.45 216.94 21.45Z" fill="white"/>
<path d="M84.0198 41.99L89.8698 19.99C90.1638 18.7704 90.8568 17.684 91.8388 16.9032C92.8207 16.1224 94.0353 15.6918 95.2897 15.68C96.5711 15.6925 97.8101 16.1411 98.8025 16.9518C99.7949 17.7625 100.482 18.8869 100.75 20.14L106.09 42.02H106.29L111.56 16.92C111.716 16.1377 112.135 15.4328 112.749 14.9231C113.362 14.4134 114.132 14.1298 114.93 14.12C115.464 14.128 115.99 14.2577 116.467 14.4991C116.944 14.7406 117.359 15.0874 117.682 15.5134C118.005 15.9394 118.227 16.4334 118.33 16.9578C118.434 17.4822 118.417 18.0232 118.28 18.54L111.28 47.02C110.998 48.2167 110.322 49.2841 109.361 50.0511C108.4 50.8181 107.209 51.2403 105.98 51.25C104.73 51.2395 103.522 50.804 102.553 50.0151C101.585 49.2263 100.913 48.1312 100.65 46.91L95.8298 24.73C95.7932 24.5826 95.7084 24.4517 95.5888 24.3581C95.4691 24.2645 95.3216 24.2137 95.1697 24.2137C95.0179 24.2137 94.8704 24.2645 94.7508 24.3581C94.6312 24.4517 94.5463 24.5826 94.5098 24.73L89.1998 46.88C88.909 48.1103 88.2139 49.2075 87.2259 49.9961C86.2379 50.7847 85.0139 51.2191 83.7498 51.23C82.4757 51.2182 81.2431 50.7761 80.252 49.9756C79.2608 49.175 78.5693 48.063 78.2897 46.82L71.6898 18.97C71.5468 18.3981 71.5347 17.8012 71.6543 17.2239C71.7739 16.6467 72.0222 16.1038 72.3807 15.6357C72.7392 15.1677 73.1986 14.7866 73.7247 14.5207C74.2509 14.2548 74.8303 14.111 75.4197 14.1C76.3147 14.1087 77.1786 14.429 77.863 15.0057C78.5474 15.5824 79.0094 16.3795 79.1697 17.26L84.0198 41.99Z" fill="white"/>
<path d="M142.13 14.09C142.645 14.0887 143.156 14.1891 143.632 14.3856C144.108 14.5822 144.541 14.8709 144.905 15.2352C145.269 15.5994 145.558 16.0321 145.754 16.5083C145.951 16.9844 146.052 17.4948 146.05 18.01V33.01L152.69 26.58C153.019 26.1689 153.429 25.831 153.896 25.5881C154.363 25.3453 154.875 25.2029 155.4 25.1699C156.025 25.169 156.638 25.3451 157.168 25.678C157.697 26.0109 158.121 26.4869 158.391 27.0509C158.661 27.6148 158.766 28.2438 158.693 28.8648C158.62 29.4859 158.373 30.0736 157.98 30.5599L153.74 34.4799C153.448 34.8407 153.278 35.285 153.254 35.7487C153.231 36.2125 153.356 36.6717 153.61 37.0599L159.18 45.52C159.547 46.0807 159.755 46.7302 159.782 47.3995C159.809 48.0689 159.654 48.7331 159.334 49.3217C159.015 49.9103 158.541 50.4013 157.965 50.7426C157.388 51.0838 156.73 51.2626 156.06 51.26C155.399 51.2599 154.749 51.084 154.178 50.7501C153.607 50.4162 153.135 49.9364 152.81 49.3599L146.05 37.21V47.3499C146.05 47.8642 145.949 48.3735 145.752 48.8486C145.554 49.3236 145.266 49.7551 144.901 50.1183C144.537 50.4815 144.105 50.7693 143.63 50.9652C143.154 51.1611 142.645 51.2613 142.13 51.26C141.093 51.26 140.099 50.848 139.365 50.1148C138.632 49.3815 138.22 48.3869 138.22 47.3499V18.0499C138.219 17.5356 138.319 17.0261 138.515 16.5506C138.711 16.0751 138.999 15.6428 139.362 15.2787C139.725 14.9146 140.157 14.6257 140.632 14.4285C141.107 14.2314 141.616 14.13 142.13 14.13V14.09Z" fill="white"/>
<path d="M195.88 51.53H181.5C181.232 51.515 180.971 51.4464 180.731 51.3283C180.49 51.2103 180.276 51.0452 180.101 50.8428C179.925 50.6404 179.792 50.4048 179.71 50.1501C179.627 49.8954 179.597 49.6267 179.62 49.36V15.27C179.597 15.0033 179.627 14.7346 179.71 14.4799C179.792 14.2252 179.925 13.9896 180.101 13.7872C180.276 13.5849 180.49 13.4197 180.731 13.3017C180.971 13.1836 181.232 13.115 181.5 13.1H195.12C202.453 13.3333 206.37 16.4067 206.87 22.32C206.87 26.46 205.05 29.32 201.42 30.96C201.355 30.9938 201.3 31.0447 201.262 31.1073C201.224 31.1699 201.204 31.2418 201.204 31.315C201.204 31.3883 201.224 31.4601 201.262 31.5227C201.3 31.5853 201.355 31.6362 201.42 31.67C205.306 33.0033 207.556 35.7733 208.17 39.98C208.18 40.1465 208.18 40.3135 208.17 40.48C208.11 47.8533 204.013 51.5367 195.88 51.53ZM193.88 19.53H187.1V28.75H193.88C197.09 28.64 198.75 27.01 198.88 23.88C198.786 21.1 197.133 19.65 193.92 19.53H193.88ZM194.63 35.18H187.1V45.44H194.48C198.19 45.44 200.1 43.71 200.2 40.23C200.027 36.9833 198.183 35.3 194.67 35.18H194.63Z" fill="white"/>
<path d="M228.95 23.7999H230.52V17.6899C230.488 17.1548 230.563 16.6186 230.742 16.1132C230.921 15.6078 231.2 15.1435 231.562 14.748C231.924 14.3525 232.362 14.0337 232.849 13.8107C233.337 13.5877 233.864 13.4651 234.4 13.45C236.8 13.45 238.19 15.5099 238.19 17.6899V23.7999H241.07C241.482 23.7812 241.893 23.844 242.28 23.9849C242.667 24.1258 243.022 24.342 243.325 24.6208C243.628 24.8997 243.873 25.2359 244.046 25.6099C244.218 25.9839 244.315 26.3883 244.33 26.7999C244.314 27.2111 244.216 27.6149 244.043 27.9883C243.87 28.3617 243.625 28.6973 243.322 28.976C243.02 29.2546 242.665 29.4708 242.278 29.6122C241.892 29.7536 241.481 29.8174 241.07 29.7999H238.19V42.71C238.19 44.87 238.92 45.71 241.5 45.71H241.81C242.184 45.6884 242.559 45.7409 242.912 45.8646C243.266 45.9883 243.591 46.1808 243.87 46.4308C244.149 46.6808 244.375 46.9835 244.537 47.3214C244.698 47.6594 244.791 48.0259 244.81 48.4C244.772 49.1306 244.486 49.8262 243.998 50.3718C243.511 50.9174 242.852 51.2802 242.13 51.4C240.661 51.5823 239.181 51.6592 237.7 51.6299C231.59 51.6299 230.57 48.6299 230.57 43.6299V29.7299H229C228.589 29.7474 228.179 29.6836 227.792 29.5422C227.406 29.4008 227.051 29.1846 226.748 28.9059C226.445 28.6273 226.2 28.2917 226.028 27.9183C225.855 27.5449 225.757 27.1411 225.74 26.7299C225.789 25.92 226.152 25.1611 226.751 24.6141C227.35 24.0671 228.139 23.775 228.95 23.7999Z" fill="white"/>
</g>
<defs>
<linearGradient id="paint0_linear_107_5650" x1="30" y1="59.9999" x2="30" y2="-4.19744e-05" gradientUnits="userSpaceOnUse">
<stop offset="0.28" stop-color="#E2491B"/>
<stop offset="1" stop-color="#EE7D1A"/>
</linearGradient>
<clipPath id="clip0_107_5650">
<rect width="244.75" height="60" fill="white"/>
</clipPath>
</defs>
</svg>
