<svg width="30" height="30" viewBox="0 0 30 30" fill="none" xmlns="http://www.w3.org/2000/svg">
<path fill-rule="evenodd" clip-rule="evenodd" d="M7.19238 8.71406H22.5518C22.4112 6.06809 20.8892 4.42478 18.6592 3.27073L18.7365 3.15342L18.7365 3.15341C18.7913 3.07008 18.8424 2.99244 18.8941 2.91518L19.1058 2.59862C19.3714 2.20131 19.6371 1.80396 19.9041 1.40754C20.0042 1.25904 20.0311 1.11086 19.8727 0.994785C19.6976 0.866444 19.5585 0.95032 19.449 1.10597C19.4143 1.15524 19.3809 1.20535 19.3476 1.25548L19.3089 1.31345L18.1389 3.05444C18.1097 3.04563 18.0827 3.03771 18.0571 3.03021L18.0568 3.03014L18.0567 3.0301C18.0045 3.01482 17.9584 3.0013 17.913 2.98575C16.0207 2.33939 14.1152 2.30795 12.197 2.86344L12.1963 2.86364C11.8955 2.95077 11.745 2.99437 11.626 2.95115C11.5067 2.90784 11.4191 2.77734 11.2437 2.51606L11.2434 2.51553L11.0797 2.27161L11.0795 2.27134L11.0795 2.27133L11.0795 2.27132L11.0795 2.2713C10.8494 1.92826 10.6193 1.5852 10.3867 1.24389C10.3721 1.22246 10.3576 1.19982 10.343 1.17692C10.2369 1.01101 10.1219 0.830923 9.88221 0.993493C9.65808 1.14553 9.77625 1.3151 9.88511 1.4713C9.89893 1.49114 9.91261 1.51076 9.92541 1.5301C10.0166 1.66783 10.1087 1.80494 10.2009 1.94204C10.2717 2.04732 10.3424 2.15259 10.4127 2.25815C10.5709 2.4955 10.7286 2.73315 10.8886 2.97418L11.0859 3.27134C8.84358 4.4359 7.33511 6.07597 7.19238 8.71406ZM22.5452 9.83594H7.20754V10.1332L7.20729 13.319C7.20694 16.1119 7.20659 18.9049 7.20879 21.6978C7.20969 22.8014 7.93018 23.5145 9.03732 23.5224C9.29401 23.5243 9.55069 23.5238 9.80972 23.5233L9.81131 23.5233C9.9292 23.5231 10.0476 23.5229 10.1667 23.5229C10.1606 23.589 10.1536 23.6502 10.1471 23.7082C10.1339 23.824 10.1222 23.9269 10.1219 24.0297C10.1184 25.1549 10.1165 26.2801 10.124 27.4053C10.1251 27.5795 10.156 27.7599 10.2086 27.9264C10.4466 28.68 11.1964 29.1413 11.9978 29.0406C12.7533 28.9458 13.3658 28.313 13.3941 27.5389C13.4146 26.9784 13.412 26.4169 13.4094 25.8555V25.8555C13.4083 25.6249 13.4072 25.3944 13.4077 25.1639C13.4086 24.7928 13.4084 24.4218 13.4081 24.0509L13.408 23.5519H16.3483C16.3483 23.9643 16.345 24.3742 16.3417 24.7822V24.7823V24.7823V24.7823V24.7824C16.3341 25.7424 16.3265 26.6925 16.3617 27.6411C16.3928 28.4771 17.1929 29.0807 18.0693 29.0487C18.8852 29.019 19.5971 28.3397 19.6097 27.5213C19.624 26.5959 19.6209 25.6703 19.6178 24.7314L19.6178 24.7299C19.6165 24.3303 19.6152 23.9283 19.6152 23.5229L19.9171 23.5229L20.5601 23.5229C21.8562 23.5224 22.5444 22.8446 22.5448 21.5624C22.5456 18.8599 22.5454 16.1573 22.5453 13.4548L22.5452 10.1853V9.83594ZM18.9793 5.74954C18.984 5.3082 18.6121 4.9327 18.1655 4.92779C17.7147 4.92276 17.3474 5.28342 17.3438 5.7346C17.3402 6.19112 17.6922 6.5463 18.151 6.5492C18.6079 6.55198 18.9747 6.19794 18.9793 5.74954ZM11.5707 4.9269C12.0195 4.91851 12.3898 5.27869 12.3957 5.72931C12.4017 6.18678 12.0523 6.54407 11.5944 6.54896C11.139 6.55379 10.7692 6.20074 10.7612 5.75331C10.7534 5.31456 11.1251 4.93521 11.5707 4.9269ZM26.9227 14.9483C26.9226 15.2974 26.9229 15.6465 26.9232 15.9956V15.997C26.9238 16.7818 26.9244 17.5667 26.9217 18.3515C26.9182 19.3501 26.2274 20.0711 25.2837 20.0705C24.3408 20.0699 23.6441 19.344 23.6431 18.3517L23.6428 18.0462C23.6407 15.8479 23.6387 13.6497 23.645 11.4514C23.6474 10.6046 24.2718 9.92493 25.0957 9.83974C25.9532 9.75114 26.7046 10.2797 26.8862 11.111C26.9205 11.2678 26.9208 11.4337 26.9212 11.5957L26.9212 11.6075C26.9234 12.4568 26.9231 13.3061 26.9228 14.1555L26.9227 14.9483ZM6.09807 16.0077C6.09707 15.6555 6.09607 15.3033 6.09607 14.951L6.09864 14.9511C6.09864 14.5997 6.09954 14.2483 6.10044 13.8968C6.10252 13.0825 6.1046 12.2682 6.09551 11.454C6.08514 10.5244 5.37242 9.83013 4.46082 9.83008C3.55306 9.83008 2.82323 10.535 2.8195 11.4538C2.81015 13.7852 2.8078 16.1167 2.82747 18.448C2.82987 18.7345 2.93352 19.0477 3.07661 19.3002C3.42763 19.9196 4.17975 20.2023 4.86557 20.0284C5.56699 19.8505 6.08237 19.2378 6.09189 18.5105C6.1028 17.6763 6.10043 16.842 6.09807 16.0077Z" fill="#F4F5F7"/>
</svg>
