<svg width="30" height="30" viewBox="0 0 30 30" fill="none" xmlns="http://www.w3.org/2000/svg">
<path fill-rule="evenodd" clip-rule="evenodd" d="M17.3822 14.4244C17.2881 14.4244 17.194 14.4244 17.0999 14.3307L5.05406 2.98819C4.95996 2.80071 4.86585 2.61323 4.95996 2.42575C5.05406 2.23827 5.24228 2.14453 5.4305 2.14453C5.5246 2.17578 5.61871 2.19661 5.71282 2.21744C5.90104 2.2591 6.08925 2.30076 6.27747 2.42575L20.9583 10.3936C21.1466 10.4873 21.2407 10.5811 21.2407 10.7686C21.2407 10.8623 21.1466 11.0498 21.0525 11.1435L17.6646 14.3307C17.5705 14.4244 17.4763 14.4244 17.3822 14.4244ZM16.2552 14.8962C16.3493 14.9899 16.4434 15.1774 16.4434 15.2711C16.4434 15.3649 16.4434 15.5523 16.3493 15.6461L4.02115 27.2698C4.02115 27.3635 3.83294 27.3635 3.73883 27.3635H3.64472C3.50094 27.3635 3.41208 27.2541 3.33618 27.1607C3.31273 27.1318 3.29051 27.1044 3.26829 27.0823C3.17419 26.8011 3.08008 26.5199 3.08008 26.2386V4.30359C3.08008 4.02237 3.17419 3.74115 3.26829 3.45993C3.3624 3.27245 3.45651 3.17871 3.64472 3.17871C3.73883 3.17871 3.92705 3.17871 4.02115 3.27245L16.2552 14.8962ZM17.7586 16.209C17.5704 16.0215 17.2881 16.0215 17.0999 16.209L5.05405 27.5515C4.95994 27.7389 4.86583 27.9264 4.95994 28.1139C5.05405 28.3014 5.24226 28.3951 5.43048 28.3951C5.71281 28.3951 5.99513 28.3014 6.27745 28.1139L20.8642 20.0523C20.9583 19.9586 21.0524 19.8648 21.1465 19.6773C21.1465 19.4899 21.1465 19.3961 20.9583 19.3024L17.7586 16.209ZM22.7492 11.336L26.3253 13.3045C27.1723 13.6795 27.4546 14.5231 27.4546 15.273C27.4546 16.023 26.9841 16.7729 26.3253 17.1478L22.561 19.2101C22.561 19.3038 22.4669 19.3038 22.3728 19.3038C22.2787 19.3038 22.1846 19.3038 22.0905 19.2101L18.4203 15.7417C18.3262 15.648 18.2321 15.5543 18.2321 15.3668C18.2321 15.1793 18.3262 15.0856 18.4203 14.9918L22.1846 11.4297C22.3728 11.2422 22.561 11.2422 22.7492 11.336Z" fill="#F4F5F7"/>
</svg>
