<svg width="30" height="30" viewBox="0 0 30 30" fill="none" xmlns="http://www.w3.org/2000/svg">
<path d="M22.8915 15.954C22.8575 12.1639 25.9957 10.32 26.1392 10.2342C24.3618 7.64359 21.6071 7.28963 20.6391 7.26142C18.3254 7.018 16.0811 8.6455 14.9025 8.6455C13.7003 8.6455 11.8854 7.28493 9.92929 7.32491C7.41213 7.36372 5.05728 8.82071 3.76576 11.0832C1.10038 15.6964 3.08824 22.4757 5.64187 26.2046C6.91929 28.032 8.41194 30.07 10.3657 29.9981C12.2771 29.9205 12.9911 28.781 15.2977 28.781C17.5832 28.781 18.2535 29.9982 20.2462 29.9523C22.2975 29.9205 23.589 28.1178 24.8218 26.2751C26.298 24.1831 26.8908 22.1205 26.9143 22.0147C26.8672 21.9983 22.9315 20.4955 22.8915 15.954ZM19.1275 4.80841C20.1555 3.5231 20.859 1.77449 20.6638 0C19.1758 0.0658525 17.315 1.02895 16.2434 2.28603C15.2954 3.39375 14.4485 5.2094 14.6672 6.91687C16.3387 7.04152 18.0549 6.07372 19.1275 4.80841Z" fill="#F4F5F7"/>
</svg>
